:SAMPLES-PER-SECOND 30
:FULLY-SPECIFIED
:DEGREES
281
root  7.542466742 36.46733442 0.6003333358 -162.7399902 -76.11710358 153.9050293
lowerback  10.39439964 3.382940054 0.4608860016
upperback  6.384459972 4.23401022 2.406810045
thorax  0.6787819862 1.963940024 1.820289969
lowerneck  0.547581017 6.80038023 -1.907729983
upperneck  17.13899994 7.851359844 7.05851984
head  4.66700983 3.967999935 2.761899948
lclavicle  0 -9.442270133e-015 7.951389973e-016
lhumerus  9.150710106 -3.652290106 90.72969818
lradius  2.407319683e-031 -2.583342018e-031 132.9799957
lwrist  0 3.531125038e-031 41.47869873
lhand  -1.496451383e-031 -27.76390076 20.11240005
lfingers  90 7.125020027 -90
lthumb  89.89689403 5.08795885 91.16245106
rclavicle  0 -9.442270133e-015 7.951389973e-016
rhumerus  15.59720039 31.76350021 -87.21289825
rradius  -9.090399911e-032 3.412109367e-031 104.9179993
rwrist  0 3.531125038e-031 -69.88130188
rhand  -7.920061211e-032 -33.2840004 9.303460121
rfingers  -90 -7.125020027 -90
rthumb  -92.93752616 -24.25625642 -97.11982154
rfemur  -6.278520107 8.180850029 -3.222110033
rtibia  -0 0 58.37960052
rfoot  -0 -29.27219963 -13.40480042
rtoes  5.373923086 19.29304026 -105.8922705
lfemur  -23.37280083 1.269170046 -2.710390091
ltibia  -0 0 56.61729813
lfoot  5.555632681e-032 -6.727210045 -1.341719985
ltoes  -4.250644065 -19.5611806 -102.515957
282
root  7.526933114 36.75977752 0.6655666772 -163.0360107 -75.72190094 154.302002
lowerback  10.46860027 3.595289946 0.7426159978
upperback  6.20746994 4.556580067 2.156650066
thorax  0.4870580137 2.143199921 1.362910032
lowerneck  -0.1126170009 6.84194994 -1.781110048
upperneck  17.29789925 7.933450222 6.947470188
head  4.833899975 4.025670052 2.74161005
lclavicle  0 -9.442270133e-015 7.951389973e-016
lhumerus  9.441590309 -3.874150038 90.27850342
lradius  2.410879782e-031 -2.580019905e-031 133.0590057
lwrist  0 3.531125038e-031 41.4836998
lhand  -1.496451383e-031 -27.76390076 20.11240005
lfingers  90 7.125020027 -90
lthumb  89.89689403 5.08795885 91.16245106
rclavicle  0 -9.442270133e-015 7.951389973e-016
rhumerus  15.41699982 31.88299942 -87.31929779
rradius  -9.08206232e-032 3.412331384e-031 104.9039993
rwrist  7.062250077e-031 3.531125038e-031 -69.71890259
rhand  -7.920061211e-032 -33.2840004 9.303460121
rfingers  -90 -7.125020027 -90
rthumb  -92.93752616 -24.25625642 -97.11982154
rfemur  -6.182459831 8.514909744 -3.427550077
rtibia  -0 0 57.33209991
rfoot  -0 -27.89629936 -12.47420025
rtoes  5.373923086 19.29304026 -105.8922705
lfemur  -22.91539955 1.604500055 -2.834150076
ltibia  -0 0 55.60969925
lfoot  4.430541966e-032 -4.966670036 -1.550879955
ltoes  -4.250644065 -19.5611806 -102.515957
283
root  7.509288638 37.05911111 0.7502333386 -162.9299927 -75.28359985 154.2949829
lowerback  10.6111002 3.832629919 1.076979995
upperback  6.016849995 4.917920113 1.807960033
thorax  0.2636600137 2.343189955 0.7660560012
lowerneck  -0.956987977 6.827899933 -1.470600009
upperneck  17.62039948 7.925139904 6.789519787
head  5.097899914 4.049109936 2.688240051
lclavicle  0 -9.442270133e-015 7.951389973e-016
lhumerus  9.808600426 -4.233540058 89.77059937
lradius  2.415019204e-031 -2.576145625e-031 133.151001
lwrist  -7.062250077e-031 6.179468817e-031 41.54740143
lhand  -1.496451383e-031 -27.76390076 20.11240005
lfingers  90 7.125020027 -90
lthumb  89.89689403 5.08795885 91.16245106
rclavicle  0 -9.442270133e-015 7.951389973e-016
rhumerus  15.36499977 31.83200073 -87.38140106
rradius  -9.124339884e-032 3.411203344e-031 104.9749985
rwrist  1.059337512e-030 1.059337512e-030 -69.57749939
rhand  -7.920061211e-032 -33.2840004 9.303460121
rfingers  -90 -7.125020027 -90
rthumb  -92.93752616 -24.25625642 -97.11982154
rfemur  -6.173799992 8.802669525 -3.831579924
rtibia  -0 0 56.31800079
rfoot  -0 -26.26810074 -11.63490009
rtoes  5.373923086 19.29304026 -105.8922705
lfemur  -22.47330093 1.843870044 -3.068759918
ltibia  -0 0 54.55070114
lfoot  6.630452963e-032 -3.082530022 -1.707720041
ltoes  -4.250644065 -19.5611806 -102.515957
284
root  7.484022276 37.37422312 0.8260777616 -162.6060181 -74.77580261 154.1480103
lowerback  10.65880013 4.070819855 1.258020043
upperback  5.803750038 5.267409801 1.439139962
thorax  0.06526820362 2.533289909 0.2394420058
lowerneck  -1.814849973 6.809380054 -1.057430029
upperneck  17.97200012 7.914830208 6.508769989
head  5.385560036 4.06911993 2.582609892
lclavicle  0 -9.442270133e-015 7.951389973e-016
lhumerus  10.18169975 -4.582590103 89.22640228
lradius  2.419870908e-031 -2.571588775e-031 133.2590027
lwrist  0 3.531125038e-031 41.66339874
lhand  -1.496451383e-031 -27.76390076 20.11240005
lfingers  90 7.125020027 -90
lthumb  89.89689403 5.08795885 91.16245106
rclavicle  0 -9.442270133e-015 7.951389973e-016
rhumerus  15.44559956 31.77440071 -87.48619843
rradius  -9.201716986e-032 3.40912424e-031 105.1050034
rwrist  3.531125038e-031 7.062250077e-031 -69.39279938
rhand  -7.920061211e-032 -33.2840004 9.303460121
rfingers  -90 -7.125020027 -90
rthumb  -92.93752616 -24.25625642 -97.11982154
rfemur  -6.298560143 9.135549545 -4.246210098
rtibia  -0 0 55.33269882
rfoot  -0 -24.51989937 -11.1267004
rtoes  5.373923086 19.29304026 -105.8922705
lfemur  -22.06290054 1.951519966 -3.288749933
ltibia  -0 0 53.46110153
lfoot  4.414819779e-032 -1.165570021 -1.9921
ltoes  -4.250644065 -19.5611806 -102.515957
